<?xml version="1.0" encoding="utf-8"?>
<!-- Generator: Adobe Illustrator 24.1.2, SVG Export Plug-In . SVG Version: 6.00 Build 0)  -->
<svg version="1.1" id="Layer_1" xmlns="http://www.w3.org/2000/svg" xmlns:xlink="http://www.w3.org/1999/xlink" x="0px" y="0px"
	 viewBox="0 0 1366 250" style="enable-background:new 0 0 1366 250;" xml:space="preserve">
<style type="text/css">
	.st0{fill:#FFFFFF;}
</style>
<g>
	<path class="st0" d="M1.5,227.5c0,0,297.93-59.55,580.5-41C909.5,208,1368,101,1368,101"/>
	<path d="M1.3,226.52c14.09-2.75,28.21-5.23,42.36-7.62c14.14-2.38,28.31-4.63,42.49-6.76c28.36-4.28,56.79-8.15,85.27-11.52
		c56.96-6.76,114.12-11.94,171.4-15.12c57.28-3.13,114.68-4.47,172.04-2.97c14.34,0.29,28.67,0.95,43,1.59l42.94,2.48
		c14.31,0.75,28.63,1.2,42.95,1.53c14.32,0.25,28.65,0.41,42.98,0.28c57.32-0.34,114.6-3.44,171.73-8.17
		c57.13-4.78,114.12-11.24,170.93-18.97c56.81-7.72,113.45-16.73,169.91-26.73c28.23-5,56.41-10.27,84.54-15.83
		c28.12-5.58,56.2-11.37,84.17-17.71c-27.94,6.44-56,12.33-84.11,18.02c-28.11,5.67-56.27,11.04-84.49,16.15
		c-56.43,10.22-113.07,19.28-169.88,27.14c-56.81,7.85-113.8,14.43-170.95,19.34c-57.15,4.85-114.46,8.07-171.84,8.54
		c-14.34,0.16-28.69,0.03-43.03-0.19c-14.34-0.3-28.68-0.72-43.01-1.44l-42.94-2.42c-14.31-0.63-28.63-1.28-42.95-1.56
		c-57.3-1.47-114.64-0.1-171.87,3.06c-57.23,3.21-114.34,8.42-171.26,15.21c-28.46,3.41-56.87,7.17-85.22,11.42
		c-14.17,2.11-28.33,4.33-42.46,6.69c-14.13,2.36-28.26,4.82-42.31,7.54L1.3,226.52z"/>
</g>
<g>
	<path class="st0" d="M0,146c0,0,279-59,598-33c282.24,23,780-51,780-51"/>
	<path d="M-0.21,145.02c14.15-2.9,28.34-5.43,42.56-7.84c14.22-2.39,28.46-4.65,42.73-6.72c28.53-4.19,57.15-7.8,85.82-10.91
		c57.34-6.2,114.89-10.37,172.53-12.58c28.82-1.05,57.65-1.58,86.49-1.61l21.63,0.08l21.63,0.35c7.21,0.08,14.41,0.34,21.62,0.55
		c7.21,0.23,14.41,0.38,21.62,0.74c28.82,1.03,57.6,3.08,86.34,5.27c14.35,1.13,28.73,1.96,43.12,2.58
		c14.39,0.65,28.79,1.06,43.19,1.3c57.62,0.98,115.26-0.54,172.83-3.3c57.57-2.77,115.07-6.9,172.5-11.84
		c57.43-4.96,114.78-10.83,172.06-17.32C1263.72,77.24,1320.93,70.14,1378,62c-57.04,8.36-114.23,15.68-171.48,22.43
		c-57.26,6.7-114.61,12.64-172.04,17.74c-57.43,5.07-114.94,9.32-172.52,12.22c-57.58,2.89-115.25,4.54-172.93,3.68
		c-14.42-0.21-28.83-0.59-43.24-1.21c-14.41-0.6-28.81-1.38-43.19-2.52c-28.74-2.17-57.47-4.2-86.27-5.22
		c-7.19-0.36-14.4-0.5-21.59-0.73c-7.2-0.21-14.4-0.46-21.6-0.54l-21.6-0.34l-21.61-0.07c-28.81,0.04-57.62,0.59-86.41,1.65
		c-57.58,2.24-115.08,6.44-172.37,12.66c-28.64,3.12-57.24,6.65-85.75,10.8c-14.26,2.05-28.49,4.29-42.7,6.65
		c-14.2,2.39-28.4,4.89-42.49,7.76L-0.21,145.02z"/>
</g>
<g>
	<path class="st0" d="M0,67c0,0,315.31-61,618-33.33C900,59.45,1383,17,1383,17"/>
	<path d="M-0.19,66.02C28.24,60.71,56.8,56.29,85.4,52.2c28.61-4.04,57.29-7.67,86.01-10.82c57.45-6.29,115.1-10.81,172.83-13.47
		c28.87-1.35,57.76-2.08,86.66-2.36c7.22-0.03,14.45-0.15,21.67-0.1l21.67,0.12c7.22,0.08,14.45,0.26,21.67,0.39
		c3.61,0.08,7.22,0.11,10.84,0.24l10.83,0.36c14.45,0.39,28.88,1.19,43.31,1.89c14.42,0.96,28.85,1.77,43.25,3.07l43.17,3.53
		l21.6,1.44c7.2,0.5,14.41,0.79,21.62,1.19l10.81,0.56l10.82,0.44l21.64,0.83c14.43,0.39,28.86,0.87,43.3,1.07
		c28.87,0.58,57.76,0.66,86.64,0.55L885.42,41l21.66-0.27c14.44-0.15,28.88-0.5,43.32-0.77c28.87-0.7,57.75-1.48,86.61-2.57
		c57.73-2.09,115.43-4.96,173.1-8.34c57.67-3.41,115.31-7.29,172.89-12.04c-115.13,9.81-230.49,16.96-345.95,21.48
		c-28.87,1.16-57.74,2.01-86.62,2.77c-14.44,0.3-28.88,0.68-43.33,0.87l-21.67,0.32l-21.67,0.19c-28.89,0.17-57.78,0.16-86.67-0.36
		c-14.45-0.16-28.89-0.61-43.33-0.97l-21.66-0.78l-10.83-0.41l-10.82-0.54c-7.21-0.39-14.43-0.66-21.64-1.14l-21.63-1.39
		c-14.41-1.09-28.82-2.34-43.2-3.5c-14.38-1.29-28.79-2.09-43.19-3.04c-14.42-0.69-28.83-1.48-43.26-1.86l-10.82-0.36
		c-3.61-0.13-7.22-0.15-10.82-0.23c-7.22-0.12-14.43-0.3-21.65-0.38l-21.65-0.11c-7.22-0.05-14.44,0.08-21.65,0.11
		c-28.87,0.3-57.74,1.04-86.58,2.4c-57.68,2.69-115.28,7.24-172.69,13.55c-28.7,3.15-57.36,6.7-85.96,10.71
		c-28.58,4.04-57.15,8.42-85.51,13.68L-0.19,66.02z"/>
</g>
<g>
</g>
<g>
</g>
<g>
</g>
<g>
</g>
<g>
</g>
<g>
</g>
<g>
</g>
<g>
</g>
<g>
</g>
<g>
</g>
<g>
</g>
<g>
</g>
<g>
</g>
<g>
</g>
<g>
</g>
</svg>
